<svg clip-rule="evenodd" fill-rule="evenodd" stroke-linejoin="round" stroke-miterlimit="1.41421" viewBox="0 0 2417 1184" xmlns="http://www.w3.org/2000/svg"><g fill-rule="nonzero"><path d="m942.408 2.229h-942.408v942.409c0 131.616 107.083 238.695 238.717 238.695h942.391v-942.396c0-131.625-107.079-238.708-238.7-238.708z" fill="#00a8e8"/><g fill="#fff"><path d="m138.604 259.892h18.313v162.429h-18.313z"/><path d="m229.862 325.054c-7.629 0-13.691 2.613-18.145 7.842-4.463 5.233-7.059 12.842-7.8 22.833h49.496c0-4.554-.451-8.729-1.367-12.521-.9-3.787-2.308-7.025-4.225-9.708-1.9-2.679-4.338-4.762-7.283-6.233-2.951-1.48-6.505-2.213-10.676-2.213zm4.538 99.288c-7.383 0-14.121-1.242-20.225-3.725-6.096-2.48-11.35-6.1-15.742-10.863-4.395-4.762-7.8-10.662-10.204-17.708-2.421-7.042-3.633-15.084-3.633-24.142 0-9.117 1.121-17.267 3.333-24.446 2.204-7.175 5.325-13.262 9.35-18.258 4.025-4.992 8.833-8.8 14.438-11.417 5.604-2.616 11.783-3.925 18.558-3.925 6.65 0 12.604 1.196 17.904 3.571 5.3 2.383 9.788 5.738 13.483 10.063 3.684 4.325 6.513 9.525 8.496 15.591 1.984 6.071 2.971 12.796 2.971 20.171v11.367h-69.621c.346 12.941 3.08 22.471 8.209 28.571s12.745 9.154 22.879 9.154c3.425 0 6.596-.171 9.512-.504 2.909-.334 5.729-.821 8.45-1.459 2.713-.637 5.346-1.441 7.896-2.416 2.546-.971 5.134-2.063 7.742-3.271v16.304c-2.675 1.275-5.317 2.371-7.892 3.308-2.591.946-5.233 1.713-7.946 2.321-2.716.6-5.533 1.038-8.45 1.3-2.916.275-6.095.413-9.508.413z"/><path d="m334.392 409.35c1.212 0 2.571-.067 4.079-.2s2.962-.304 4.366-.504c1.417-.204 2.709-.434 3.88-.704 1.175-.267 2.062-.5 2.666-.7v13.875c-.875.404-1.979.812-3.32 1.204-1.334.404-2.813.762-4.421 1.062-1.609.304-3.296.534-5.029.7-1.751.171-3.459.259-5.134.259-4.158 0-8.012-.542-11.575-1.617-3.562-1.071-6.621-2.917-9.2-5.533-2.583-2.609-4.612-6.146-6.091-10.609-1.48-4.458-2.205-10.075-2.205-16.85v-64.079h-15.596v-8.15l15.596-7.846 7.834-23.137h10.575v25.354h27.758v13.779h-27.758v64.079c0 6.509 1.05 11.4 3.166 14.688 2.109 3.287 5.584 4.929 10.409 4.929z"/><path d="m400.167 275.254 1.404 2.217c-.946 3.683-2.071 7.562-3.371 11.621-1.308 4.054-2.746 8.179-4.321 12.37-1.579 4.188-3.225 8.33-4.933 12.421-1.709 4.092-3.404 8.017-5.088 11.771h-13.771c.93-4.025 1.892-8.25 2.863-12.671.967-4.429 1.908-8.858 2.821-13.279.9-4.429 1.729-8.721 2.458-12.883.738-4.154 1.379-8.009 1.913-11.567z"/><path d="m482.342 392.046c0 5.366-.971 10.062-2.921 14.083-1.946 4.025-4.738 7.392-8.392 10.109-3.658 2.716-8.058 4.75-13.229 6.083-5.175 1.346-10.971 2.021-17.408 2.021-7.309 0-13.584-.596-18.813-1.763-5.229-1.179-9.825-2.9-13.787-5.183v-16.7c2.083 1.079 4.396 2.133 6.941 3.175 2.555 1.037 5.238 1.958 8.059 2.767 2.812.804 5.716 1.454 8.691 1.954 2.992.504 5.959.758 8.909.758 4.366 0 8.066-.363 11.112-1.104 3.054-.738 5.529-1.796 7.442-3.171 1.917-1.375 3.304-3.046 4.175-5.029.879-1.979 1.312-4.175 1.312-6.592 0-2.079-.341-3.958-1.004-5.629-.671-1.675-1.904-3.338-3.675-4.983-1.775-1.642-4.212-3.3-7.287-4.98-3.088-1.674-7.05-3.549-11.871-5.633-4.838-2.075-9.175-4.125-13.034-6.133-3.854-2.013-7.12-4.258-9.812-6.742-2.667-2.479-4.737-5.35-6.179-8.604-1.442-3.25-2.163-7.125-2.163-11.617 0-4.691.913-8.866 2.763-12.521 1.833-3.658 4.441-6.725 7.8-9.208 3.354-2.479 7.379-4.358 12.075-5.633 4.683-1.275 9.921-1.913 15.696-1.913 6.495 0 12.441.705 17.845 2.113 5.396 1.412 10.521 3.258 15.346 5.533l-6.337 14.792c-4.371-1.946-8.838-3.642-13.425-5.083-4.6-1.442-9.279-2.159-14.033-2.159-6.842 0-11.9 1.121-15.196 3.367-3.284 2.25-4.929 5.45-4.929 9.608 0 2.346.387 4.392 1.158 6.133.771 1.746 2.092 3.388 3.975 4.93 1.879 1.545 4.391 3.108 7.542 4.679 3.154 1.575 7.083 3.337 11.766 5.283 4.834 2.013 9.142 4.021 12.934 6.034 3.787 2.012 7.029 4.275 9.704 6.787 2.687 2.521 4.725 5.383 6.133 8.604 1.413 3.217 2.117 7.075 2.117 11.567z"/><path d="m689.092 422.321v-71.117c0-8.716-1.679-15.254-5.025-19.617-3.354-4.358-8.55-6.533-15.596-6.533-4.888 0-9.042.784-12.471 2.363-3.417 1.575-6.221 3.887-8.412 6.937-2.163 3.054-3.755 6.842-4.767 11.367-1.008 4.529-1.509 9.742-1.509 15.646v60.954h-18.4v-71.117c0-8.716-1.658-15.254-4.987-19.617-3.321-4.358-8.5-6.533-15.55-6.533-5.154 0-9.488.867-12.967 2.613-3.491 1.746-6.287 4.325-8.408 7.745-2.104 3.421-3.608 7.609-4.525 12.571-.904 4.967-1.363 10.663-1.363 17.105v57.233h-18.295v-110.446h14.883l2.613 14.888h1.008c1.608-2.888 3.525-5.384 5.737-7.496 2.217-2.113 4.638-3.875 7.292-5.284 2.642-1.408 5.471-2.446 8.45-3.116 2.983-.667 6.013-1.009 9.108-1.009 8.042 0 14.734 1.479 20.063 4.43 5.329 2.954 9.271 7.579 11.825 13.879h.8c1.746-3.146 3.837-5.867 6.296-8.146 2.437-2.279 5.129-4.175 8.041-5.684 2.917-1.512 5.98-2.629 9.204-3.37 3.225-.738 6.505-1.109 9.859-1.109 11.733 0 20.571 3.204 26.504 9.609 5.938 6.408 8.896 16.65 8.896 30.733v72.121z"/><path d="m770.079 409.55c4.083 0 7.879-.637 11.354-1.913 3.484-1.27 6.513-3.199 9.059-5.779 2.558-2.583 4.554-5.841 5.991-9.758 1.446-3.925 2.155-8.538 2.155-13.833v-9.959l-14.375.705c-6.038.266-11.105.937-15.192 2.008-4.096 1.075-7.363 2.562-9.808 4.475-2.459 1.916-4.221 4.229-5.28 6.946-1.083 2.716-1.625 5.783-1.625 9.204 0 6.171 1.634 10.7 4.892 13.583 3.246 2.879 7.521 4.321 12.829 4.321zm33.596 12.771-3.717-15.284h-.812c-2.213 3.017-4.425 5.617-6.633 7.796-2.221 2.184-4.63 3.975-7.251 5.379-2.616 1.409-5.525 2.45-8.749 3.121-3.217.671-6.942 1.009-11.176 1.009-4.612 0-8.883-.655-12.766-1.963-3.888-1.308-7.267-3.321-10.113-6.033-2.841-2.721-5.079-6.142-6.691-10.267-1.604-4.125-2.404-9-2.404-14.633 0-11 3.879-19.45 11.616-25.35 7.738-5.904 19.517-9.121 35.359-9.659l18.504-.708v-6.937c0-4.492-.488-8.25-1.454-11.271-.98-3.013-2.384-5.446-4.221-7.288-1.846-1.845-4.125-3.171-6.842-3.975-2.717-.808-5.821-1.204-9.304-1.204-5.575 0-10.763.8-15.546 2.413-4.8 1.608-9.404 3.554-13.833 5.833l-6.45-13.783c4.97-2.684 10.504-4.963 16.608-6.838 6.117-1.879 12.508-2.821 19.221-2.821 6.833 0 12.762.692 17.758 2.063 4.992 1.379 9.104 3.558 12.363 6.541 3.254 2.984 5.687 6.788 7.295 11.417 1.609 4.629 2.417 10.229 2.417 16.8v75.642z"/><path d="m867.658 365.288 13.579-17.1 29.467-36.313h21.225l-40.333 47.783 43.054 62.663h-21.025l-33.796-50.692-10.967 8.246v42.446h-18.1v-156.521h18.1v71.825l-1.616 27.663z"/><path d="m992.092 325.054c-7.646 0-13.692 2.613-18.15 7.842-4.463 5.233-7.067 12.842-7.809 22.833h49.496c0-4.554-.45-8.729-1.358-12.521-.904-3.787-2.308-7.025-4.225-9.708-1.9-2.679-4.338-4.762-7.296-6.233-2.95-1.48-6.5-2.213-10.658-2.213zm4.529 99.288c-7.392 0-14.125-1.242-20.225-3.725-6.1-2.48-11.346-6.1-15.742-10.863-4.404-4.762-7.796-10.662-10.208-17.708-2.413-7.042-3.625-15.084-3.625-24.142 0-9.117 1.112-17.267 3.337-24.446 2.188-7.175 5.317-13.262 9.342-18.258 4.025-4.992 8.821-8.8 14.442-11.417 5.587-2.616 11.779-3.925 18.554-3.925 6.637 0 12.604 1.196 17.904 3.571 5.287 2.383 9.796 5.738 13.479 10.063 3.696 4.325 6.521 9.525 8.5 15.591 1.983 6.071 2.975 12.796 2.975 20.171v11.367h-69.617c.338 12.941 3.063 22.471 8.205 28.571 5.121 6.1 12.75 9.154 22.875 9.154 3.425 0 6.596-.171 9.504-.504 2.925-.334 5.729-.821 8.45-1.459 2.717-.637 5.362-1.441 7.904-2.416 2.546-.971 5.133-2.063 7.742-3.271v16.304c-2.684 1.275-5.325 2.371-7.905 3.308-2.574.946-5.229 1.713-7.933 2.321-2.716.6-5.537 1.038-8.462 1.3-2.909.275-6.075.413-9.496.413z"/><path d="m184.983 554.958c-5.104 0-9.416.771-12.925 2.317-3.525 1.542-6.383 3.883-8.554 7.042-2.183 3.15-3.787 7.07-4.829 11.766-1.042 4.688-1.633 10.229-1.758 16.6v4.121c0 6.779.45 12.792 1.354 18.059.908 5.262 2.437 9.691 4.629 13.279 2.175 3.591 5.075 6.308 8.704 8.145 3.613 1.859 8.146 2.775 13.575 2.775 9.059 0 15.704-3.662 19.971-10.966 4.25-7.309 6.379-17.8 6.379-31.488 0-13.95-2.129-24.375-6.379-31.283-4.267-6.908-10.992-10.367-20.167-10.367zm3.513 99.292c-3.95 0-7.542-.442-10.763-1.304-3.216-.879-6.129-2.033-8.708-3.475-2.575-1.438-4.858-3.142-6.829-5.075-1.971-1.954-3.746-3.996-5.279-6.146h-1.209c.188 2.279.392 4.467.6 6.542.129 1.741.267 3.541.405 5.379.129 1.85.204 3.304.204 4.379v41.625h-18.313v-154.392h14.888l2.608 14.884h.817c1.533-2.346 3.283-4.542 5.225-6.584 1.95-2.041 4.212-3.825 6.795-5.333 2.575-1.513 5.48-2.717 8.709-3.621 3.208-.904 6.825-1.358 10.85-1.358 6.304 0 12.046 1.204 17.204 3.621 5.167 2.416 9.567 6.02 13.229 10.808 3.65 4.8 6.488 10.75 8.504 17.862 2 7.105 3.025 15.359 3.025 24.742 0 9.454-1.025 17.763-3.025 24.9-2.016 7.146-4.854 13.129-8.504 17.954-3.662 4.834-8.062 8.471-13.229 10.921-5.158 2.442-10.9 3.671-17.204 3.671z"/><path d="m289.171 639.454c4.087 0 7.879-.633 11.358-1.904 3.492-1.279 6.509-3.2 9.063-5.787 2.546-2.588 4.541-5.842 5.983-9.746 1.446-3.934 2.158-8.546 2.158-13.838v-9.967l-14.383.717c-6.037.258-11.1.933-15.188 2-4.099 1.075-7.362 2.571-9.816 4.475-2.45 1.913-4.204 4.225-5.271 6.942-1.083 2.721-1.612 5.787-1.612 9.204 0 6.179 1.629 10.712 4.883 13.583 3.241 2.888 7.525 4.321 12.825 4.321zm33.591 12.775-3.716-15.279h-.804c-2.209 3.017-4.429 5.612-6.646 7.787-2.213 2.18-4.621 3.98-7.242 5.388-2.612 1.408-5.533 2.45-8.737 3.108-3.23.684-6.95 1.017-11.167 1.017-4.638 0-8.896-.658-12.783-1.962-3.9-1.309-7.263-3.33-10.117-6.038-2.846-2.708-5.079-6.129-6.683-10.263-1.613-4.124-2.417-9.008-2.417-14.633 0-10.992 3.875-19.45 11.617-25.35 7.746-5.908 19.533-9.121 35.366-9.658l18.509-.709v-6.941c0-4.483-.488-8.25-1.454-11.263-.988-3.012-2.388-5.446-4.23-7.291-1.85-1.846-4.137-3.167-6.845-3.971-2.713-.817-5.817-1.213-9.3-1.213-5.567 0-10.751.804-15.546 2.417-4.796 1.604-9.404 3.554-13.834 5.833l-6.437-13.779c4.958-2.683 10.496-4.962 16.6-6.846 6.1-1.875 12.504-2.812 19.217-2.812 6.837 0 12.754.683 17.754 2.058 4.991 1.375 9.116 3.559 12.362 6.542 3.259 2.983 5.7 6.791 7.309 11.421 1.608 4.629 2.408 10.229 2.408 16.795v75.642z"/><path d="m353.35 541.783h19.017l21.625 61.667c.929 2.679 1.887 5.496 2.866 8.45.971 2.954 1.879 5.892 2.717 8.854.842 2.954 1.563 5.8 2.167 8.546.608 2.75 1.029 5.304 1.304 7.65h.604c.333-1.688.871-3.958 1.608-6.837.738-2.888 1.555-5.959 2.463-9.213s1.841-6.454 2.821-9.604c.971-3.15 1.825-5.842 2.571-8.046l20.008-61.467h18.916l-43.662 124.846c-1.875 5.417-3.904 10.3-6.087 14.629-2.184 4.321-4.713 7.992-7.596 11.021-2.884 3.009-6.267 5.338-10.15 6.992-3.9 1.633-8.525 2.454-13.888 2.454-3.491 0-6.504-.179-9.054-.55-2.546-.375-4.725-.75-6.538-1.158v-14.584c1.409.334 3.188.621 5.33.854 2.146.238 4.391.342 6.737.342 3.225 0 6.004-.371 8.354-1.146s4.388-1.896 6.134-3.379c1.741-1.462 3.233-3.279 4.479-5.425 1.233-2.15 2.367-4.591 3.362-7.333l5.746-16.113z"/><path d="m607.55 652.229v-71.117c0-8.716-1.675-15.258-5.029-19.62-3.354-4.355-8.55-6.534-15.604-6.534-4.88 0-9.042.788-12.467 2.367-3.413 1.571-6.217 3.883-8.396 6.942-2.183 3.054-3.766 6.837-4.783 11.37-.996 4.525-1.504 9.734-1.504 15.634v60.958h-18.413v-71.117c0-8.716-1.654-15.258-4.975-19.62-3.312-4.355-8.496-6.534-15.542-6.534-5.162 0-9.483.871-12.974 2.613-3.492 1.75-6.296 4.329-8.405 7.754-2.116 3.417-3.612 7.608-4.52 12.575-.917 4.962-1.363 10.658-1.363 17.096v57.233h-18.312v-110.446h14.895l2.617 14.884h1.004c1.608-2.88 3.513-5.379 5.729-7.488 2.213-2.121 4.65-3.883 7.292-5.287 2.654-1.404 5.475-2.446 8.446-3.121 2.991-.659 6.025-1 9.112-1 8.042 0 14.734 1.475 20.059 4.421 5.341 2.958 9.283 7.579 11.825 13.883h.808c1.746-3.142 3.846-5.867 6.296-8.146 2.442-2.279 5.125-4.175 8.041-5.683 2.917-1.513 5.988-2.634 9.205-3.367 3.216-.746 6.496-1.108 9.85-1.108 11.741 0 20.587 3.2 26.512 9.608 5.933 6.4 8.909 16.646 8.909 30.734v72.116z"/><path d="m697.217 554.958c-7.646 0-13.692 2.613-18.159 7.846-4.454 5.229-7.058 12.85-7.8 22.833h49.496c0-4.558-.45-8.725-1.358-12.525-.904-3.783-2.309-7.02-4.225-9.708-1.909-2.675-4.338-4.75-7.288-6.233-2.95-1.471-6.508-2.213-10.666-2.213zm4.529 99.292c-7.383 0-14.117-1.238-20.225-3.721-6.1-2.487-11.346-6.104-15.733-10.871-4.396-4.762-7.8-10.662-10.217-17.7-2.404-7.05-3.617-15.087-3.617-24.137 0-9.133 1.104-17.271 3.313-24.446 2.212-7.179 5.333-13.275 9.366-18.262 4.017-4.996 8.821-8.805 14.425-11.421 5.605-2.609 11.788-3.921 18.563-3.921 6.637 0 12.612 1.187 17.896 3.567 5.304 2.383 9.804 5.737 13.487 10.058 3.696 4.329 6.529 9.529 8.5 15.6 1.984 6.062 2.967 12.783 2.967 20.167v11.366h-69.608c.329 12.942 3.07 22.471 8.195 28.567 5.138 6.112 12.759 9.154 22.884 9.154 3.429 0 6.595-.154 9.504-.496 2.925-.341 5.737-.821 8.458-1.467 2.717-.633 5.346-1.445 7.896-2.416 2.546-.967 5.125-2.059 7.742-3.263v16.3c-2.684 1.28-5.317 2.375-7.896 3.313-2.584.946-5.225 1.716-7.942 2.312-2.717.609-5.537 1.042-8.462 1.309-2.909.27-6.075.408-9.496.408z"/><path d="m837.354 652.229v-71.117c0-8.716-1.762-15.258-5.283-19.62-3.525-4.355-9.038-6.534-16.55-6.534-5.433 0-9.979.871-13.684 2.613-3.683 1.75-6.649 4.329-8.895 7.754-2.246 3.417-3.855 7.608-4.825 12.575-.975 4.962-1.471 10.658-1.471 17.096v57.233h-18.304v-110.446h14.896l2.608 14.884h1.004c1.671-2.88 3.675-5.379 5.988-7.488 2.308-2.121 4.845-3.883 7.604-5.287 2.745-1.404 5.67-2.446 8.741-3.121 3.088-.659 6.25-1 9.467-1 12.254 0 21.508 3.2 27.7 9.608 6.213 6.4 9.308 16.646 9.308 30.734v72.116z"/><path d="m921.875 639.267c1.213 0 2.575-.071 4.071-.205 1.512-.137 2.966-.308 4.371-.512 1.416-.196 2.708-.429 3.879-.708 1.179-.259 2.062-.496 2.667-.7v13.883c-.88.408-1.98.808-3.33 1.204-1.341.409-2.804.759-4.412 1.059-1.604.304-3.288.537-5.033.708-1.746.171-3.459.254-5.126.254-4.158 0-8.016-.538-11.57-1.612-3.563-1.076-6.625-2.913-9.213-5.534-2.579-2.612-4.604-6.154-6.083-10.612-1.471-4.459-2.209-10.075-2.209-16.846v-64.088h-15.595v-8.146l15.595-7.845 7.851-23.142h10.549v25.358h27.759v13.775h-27.759v64.088c0 6.504 1.063 11.404 3.176 14.683 2.112 3.288 5.587 4.938 10.412 4.938z"/><path d="m207.617 893.237v-71.125c0-8.716-1.763-15.249-5.279-19.612-3.534-4.354-9.042-6.533-16.563-6.533-5.425 0-9.988.862-13.683 2.612-3.68 1.746-6.646 4.329-8.892 7.746-2.25 3.425-3.858 7.608-4.829 12.571-.971 4.958-1.454 10.671-1.454 17.1v57.241h-18.313v-151.904h18.313v41.854l-.817 14.488h1.017c1.671-2.883 3.666-5.387 5.987-7.488 2.309-2.124 4.842-3.891 7.592-5.291 2.75-1.417 5.671-2.458 8.746-3.117 3.091-.666 6.241-1 9.454-1 12.279 0 21.512 3.2 27.721 9.596 6.208 6.412 9.296 16.65 9.296 30.738v72.124z"/><path d="m288.592 880.462c4.096 0 7.883-.633 11.366-1.912 3.488-1.271 6.5-3.208 9.055-5.788 2.55-2.579 4.545-5.824 5.991-9.758 1.442-3.921 2.159-8.525 2.159-13.825v-9.971l-14.384.717c-6.037.262-11.104.937-15.2 2.013-4.079 1.066-7.346 2.562-9.796 4.474-2.454 1.913-4.216 4.225-5.283 6.942-1.075 2.717-1.612 5.788-1.612 9.204 0 6.175 1.62 10.692 4.887 13.575 3.242 2.888 7.521 4.329 12.817 4.329zm33.604 12.775-3.721-15.283h-.8c-2.221 3.013-4.429 5.617-6.646 7.796-2.217 2.175-4.637 3.967-7.246 5.371-2.621 1.416-5.529 2.45-8.746 3.121-3.224.675-6.945 1.016-11.166 1.016-4.629 0-8.896-.662-12.775-1.971-3.896-1.308-7.267-3.32-10.113-6.037-2.85-2.712-5.087-6.137-6.691-10.263-1.613-4.116-2.421-8.999-2.421-14.633 0-10.991 3.879-19.45 11.629-25.35 7.733-5.9 19.525-9.121 35.354-9.658l18.504-.7v-6.942c0-4.491-.487-8.254-1.445-11.271-.98-3.02-2.384-5.445-4.23-7.291-1.841-1.842-4.125-3.167-6.845-3.971-2.721-.809-5.817-1.204-9.309-1.204-5.558 0-10.742.795-15.529 2.408-4.804 1.6-9.412 3.554-13.846 5.833l-6.429-13.783c4.963-2.679 10.5-4.95 16.596-6.838 6.104-1.87 12.5-2.808 19.208-2.808 6.846 0 12.767.684 17.759 2.05 4.999 1.375 9.12 3.559 12.379 6.546 3.254 2.983 5.679 6.783 7.296 11.408 1.599 4.63 2.399 10.246 2.399 16.813v75.641z"/><path d="m415.642 795.967c-5.1 0-9.404.771-12.929 2.308-3.513 1.538-6.367 3.892-8.546 7.05-2.188 3.15-3.796 7.062-4.829 11.758-1.038 4.696-1.634 10.23-1.759 16.6v4.129c0 6.771.45 12.784 1.363 18.059.895 5.254 2.437 9.683 4.621 13.271 2.183 3.587 5.083 6.308 8.699 8.154 3.626 1.841 8.163 2.766 13.588 2.766 9.05 0 15.708-3.654 19.967-10.97 4.254-7.309 6.387-17.805 6.387-31.484 0-13.95-2.133-24.375-6.387-31.283-4.259-6.9-10.984-10.358-20.175-10.358zm3.52 99.291c-3.954 0-7.537-.441-10.762-1.312-3.225-.879-6.121-2.042-8.696-3.475-2.587-1.438-4.866-3.134-6.846-5.084-1.975-1.937-3.737-3.983-5.279-6.129h-1.208c.2 2.271.404 4.459.6 6.542.133 1.742.266 3.533.408 5.379.121 1.842.2 3.296.2 4.371v47.175h-18.316v-159.942h14.891l2.621 14.892h.804c1.542-2.354 3.275-4.55 5.229-6.583 1.95-2.054 4.2-3.834 6.788-5.342 2.579-1.504 5.479-2.717 8.704-3.621 3.217-.908 6.838-1.35 10.862-1.35 6.309 0 12.042 1.196 17.209 3.613 5.162 2.425 9.575 6.016 13.225 10.816 3.654 4.8 6.487 10.75 8.508 17.855 2.004 7.112 3.013 15.35 3.013 24.749 0 9.455-1.009 17.746-3.013 24.901-2.021 7.145-4.854 13.12-8.508 17.954-3.65 4.825-8.063 8.462-13.225 10.912-5.167 2.459-10.9 3.679-17.209 3.679z"/><path d="m536.354 795.967c-5.092 0-9.396.771-12.917 2.308-3.52 1.538-6.37 3.892-8.554 7.05-2.183 3.15-3.791 7.062-4.829 11.758-1.037 4.696-1.629 10.23-1.758 16.6v4.129c0 6.771.454 12.784 1.358 18.059.904 5.254 2.438 9.683 4.621 13.271 2.183 3.587 5.079 6.308 8.708 8.154 3.617 1.841 8.15 2.766 13.567 2.766 9.071 0 15.733-3.654 19.983-10.97 4.25-7.309 6.392-17.805 6.392-31.484 0-13.95-2.142-24.375-6.392-31.283-4.25-6.9-10.995-10.358-20.179-10.358zm3.525 99.291c-3.966 0-7.55-.441-10.767-1.312-3.216-.879-6.125-2.042-8.687-3.475-2.592-1.438-4.871-3.134-6.85-5.084-1.979-1.937-3.742-3.983-5.279-6.129h-1.209c.201 2.271.4 4.459.605 6.542.125 1.742.266 3.533.404 5.379.129 1.842.2 3.296.2 4.371v47.175h-18.308v-159.942h14.879l2.62 14.892h.809c1.537-2.354 3.283-4.55 5.229-6.583 1.946-2.054 4.204-3.834 6.783-5.342 2.592-1.504 5.492-2.717 8.713-3.621 3.216-.908 6.829-1.35 10.858-1.35 6.3 0 12.029 1.196 17.204 3.613 5.163 2.425 9.567 6.016 13.23 10.816 3.65 4.8 6.487 10.75 8.499 17.855 2.005 7.112 3.013 15.35 3.013 24.749 0 9.455-1.008 17.746-3.013 24.901-2.012 7.145-4.849 13.12-8.5 17.954-3.662 4.825-8.066 8.462-13.229 10.912-5.175 2.459-10.904 3.679-17.204 3.679z"/><path d="m649.833 795.967c-7.641 0-13.687 2.612-18.154 7.841-4.454 5.234-7.067 12.842-7.791 22.838h49.479c0-4.558-.446-8.733-1.35-12.525s-2.313-7.029-4.225-9.717c-1.917-2.671-4.338-4.762-7.288-6.225-2.95-1.475-6.508-2.212-10.671-2.212zm4.534 99.291c-7.392 0-14.125-1.254-20.225-3.729s-11.346-6.104-15.742-10.862c-4.396-4.763-7.8-10.671-10.204-17.7-2.417-7.042-3.629-15.096-3.629-24.154 0-9.126 1.112-17.263 3.321-24.438 2.212-7.179 5.333-13.275 9.358-18.254 4.016-5 8.825-8.817 14.433-11.434 5.6-2.604 11.788-3.908 18.554-3.908 6.646 0 12.613 1.179 17.909 3.567 5.304 2.383 9.8 5.733 13.483 10.058 3.696 4.329 6.521 9.521 8.5 15.584 1.979 6.07 2.958 12.8 2.958 20.183v11.358h-69.6c.329 12.95 3.071 22.471 8.196 28.567 5.129 6.1 12.758 9.162 22.884 9.162 3.425 0 6.595-.17 9.504-.504 2.925-.333 5.737-.816 8.45-1.458 2.725-.633 5.35-1.442 7.904-2.417 2.546-.967 5.125-2.058 7.741-3.271v16.3c-2.683 1.271-5.316 2.384-7.887 3.313-2.592.942-5.233 1.717-7.95 2.329-2.717.592-5.537 1.033-8.463 1.3-2.908.267-6.074.408-9.495.408z"/><path d="m789.967 893.237v-71.125c0-8.716-1.763-15.249-5.275-19.612-3.525-4.354-9.055-6.533-16.559-6.533-5.433 0-9.995.862-13.683 2.612-3.683 1.746-6.658 4.329-8.904 7.746-2.246 3.425-3.854 7.608-4.825 12.571-.967 4.958-1.454 10.671-1.454 17.1v57.241h-18.313v-110.454h14.888l2.616 14.892h1.013c1.671-2.883 3.675-5.387 5.987-7.488 2.3-2.124 4.838-3.891 7.588-5.291 2.754-1.417 5.671-2.458 8.741-3.117 3.088-.666 6.242-1 9.459-1 12.279 0 21.517 3.2 27.725 9.596 6.196 6.412 9.3 16.65 9.3 30.738v72.124z"/></g><path d="m2173.87 1183.33h-942.384v-942.396c0-131.625 107.08-238.708 238.692-238.708h942.404v942.409c0 131.616-107.083 238.695-238.712 238.695z" fill="#00a8e8"/><path d="m1239.76 1175.06h934.109c127.066 0 230.437-103.366 230.437-230.42v-934.134h-934.129c-127.05 0-230.417 103.371-230.417 230.433z" fill="#fff"/><path d="m1909.4 432.133c3.508-10.02 7.875-21.529 7.875-32.508 0-10.946-3.542-17.975-10.121-24.5v-1.454h63.034l-81.555 241.729c-8.812-1.033-17.625-6.042-25.104-10.954-33.087-20.013-37.458-30.013-50.258-68.45l-36.629-110.917c-6.596-19.946-11.442-35.446-25.109-49.954v-1.454h54.642c11.038 0 22.079.979 30.029-7.509h1.317l46.291 145.359zm-185.496-2.546h-1.362c-13.167-10.012-27.325-16.441-44.954-16.441-12.788 0-25.538 5.975-33.492 17.475-9.667 13.967-11.45 32.921-11.45 49.4 0 20.558 5.717 46.45 18.537 62.487 9.659 12.946 25.53 17.471 40.075 17.471 20.3 0 43.225-9.996 58.221-23.529h1.313l-14.096 54.508c-23.409 12.909-49.842 18.954-75.854 18.954-60.821 0-113.288-45.5-113.288-117.854 0-82.412 56.475-124.916 124.333-124.916 17.205 0 34.83 3.516 52.017 5.016zm-220.408 0h-1.342c-13.254-10.012-27.317-16.441-45.012-16.441-12.75 0-25.505 5.975-33.455 17.475-9.687 13.967-11.441 32.921-11.441 49.4 0 20.558 5.721 46.45 18.441 62.487 9.767 12.946 25.65 17.471 40.175 17.471 20.255 0 43.188-9.996 58.209-23.529h1.287l-14.108 54.508c-23.371 12.909-49.758 18.954-75.796 18.954-60.879 0-113.342-45.5-113.342-117.854 0-82.412 56.413-124.916 124.342-124.916 17.163 0 34.863 3.516 52.042 5.016z" fill="#213267"/><path d="m2140.03 613.242c260.8-106.121 11.767-203.346 0 0z" fill="#00a8e8"/><path d="m2049.88 687.275c161.508-152.838-105.692-297.912 0 0z" fill="#52b848"/><path d="m2060.11 706.562c407.129 106.151 307.004-123.041 0 0z" fill="#00a8e8"/><path d="m2059.38 720.892c-39.77 239.77 406.067 107.412 0 0z" fill="#213267"/><path d="m2049.55 720.892c-419.358 131.696-42.971 239.908 0 0z" fill="#213267"/><path d="m2038.56 706.225c-265.587-115.646-419.875 130.471 0 0z" fill="#52b848"/></g></svg>