<svg width="126" height="40" viewBox="0 0 126 40" fill="none" xmlns="http://www.w3.org/2000/svg">
<path fill-rule="evenodd" clip-rule="evenodd" d="M28.7388 1.92652C26.1344 0.691238 23.2207 0 20.1453 0C14.7802 0 9.90741 2.1036 6.31014 5.52935C2.48565 9.17149 35.508 5.13721 28.7388 1.92652Z" fill="#FCC397"/>
<path fill-rule="evenodd" clip-rule="evenodd" d="M35.803 7.51418C35.8259 7.54273 34.1683 9.75347 29.1865 10.3811C19.1311 11.6479 1.86756 11.7818 1.89358 11.7248C2.96153 9.3831 4.46872 7.28306 6.31014 5.52946C8.47976 6.20543 10.8413 6.37388 13.0751 5.9631C16.7634 5.28977 20.0449 3.1631 23.6932 2.29644C25.3126 1.90823 27.0769 1.79483 28.7385 1.92654C31.4995 3.23609 33.913 5.15709 35.803 7.51418Z" fill="#FC9F95"/>
<path fill-rule="evenodd" clip-rule="evenodd" d="M39.9431 16.867C39.9558 16.9476 17.2681 19.0757 6.21404 18.4554C2.61252 18.2533 0.487062 16.0804 0.511438 15.9618C0.815204 14.4833 1.28246 13.0644 1.89352 11.7245C5.08707 9.9802 8.84427 8.97355 12.4875 9.01328C17.0562 9.05994 21.5383 10.5799 26.107 10.4666C29.5 10.3805 32.9199 9.29987 35.8029 7.51392C37.9276 10.1636 39.3909 13.3644 39.9431 16.867Z" fill="#F77C88"/>
<path fill-rule="evenodd" clip-rule="evenodd" d="M40.1874 20C40.1874 20.1109 40.1847 20.3319 40.1847 20.3319C40.1847 20.3319 33.8831 21.9179 25.7676 21.8233C14.4005 21.6907 0.102988 19.8611 0.103271 19.8276C0.114503 18.5006 0.255245 17.2044 0.513501 15.951C3.23688 17.6278 6.53966 18.4491 9.71855 18.1034C12.2464 17.8301 14.6474 16.8968 16.9885 15.9034C19.3296 14.9101 21.6573 13.8434 24.1317 13.2701C27.7667 12.4301 31.6552 12.7234 35.1301 14.0901C36.8205 14.7553 38.4979 15.7117 39.9426 16.865C40.1037 17.8864 40.1874 18.9335 40.1874 20Z" fill="#F25192"/>
<path fill-rule="evenodd" clip-rule="evenodd" d="M17.4575 26.4937C11.4443 27.6018 1.1249 26.3238 1.09889 26.2447C0.452298 24.2798 0.102539 22.1806 0.102539 19.9999C0.102539 19.9423 0.102783 19.8848 0.10327 19.8273C1.01612 19.105 2.08239 18.4609 3.12329 17.9605C5.69779 16.7138 8.61912 16.1938 11.4671 16.4738C14.2817 16.7538 16.9696 17.7938 19.5707 18.9138C21.7622 19.8574 23.9395 20.8767 26.2143 21.581C26.4371 21.65 24.0766 25.274 17.4575 26.4937Z" fill="#D34CA3"/>
<path fill-rule="evenodd" clip-rule="evenodd" d="M39.4645 25.3425C39.0447 26.0501 35.0513 28.4339 29.638 28.8421C22.4706 29.3827 14.0035 27.2207 16.8122 26.1205C21.2342 24.3872 25.0693 21.2738 29.638 19.9738C33.0511 18.9982 36.8344 19.1524 40.1849 20.3314C40.1567 22.0643 39.9076 23.7436 39.4645 25.3425Z" fill="#9A50A5"/>
<path fill-rule="evenodd" clip-rule="evenodd" d="M37.5249 29.968C34.0641 35.9638 8.96388 37.4674 5.2971 33.4341C3.43058 31.3811 1.98576 28.9393 1.09912 26.2449C4.18155 24.4868 7.78985 23.7402 11.2581 24.2135C15.7468 24.8268 19.7686 27.3268 24.1973 28.3002C27.7722 29.0868 31.5606 28.8402 35.0022 27.6002C36.558 27.0353 38.1006 26.2783 39.4647 25.3424C39.0115 26.978 38.3553 28.5294 37.5249 29.968Z" fill="#59569E"/>
<path fill-rule="evenodd" clip-rule="evenodd" d="M37.5538 29.9176C34.1002 35.9409 27.5977 39.9998 20.1452 39.9998C14.2571 39.9998 8.96202 37.4661 5.29517 33.4317C5.90367 33.6638 6.58425 33.8645 7.20803 34.0399C10.6963 34.9999 14.4513 34.9732 17.9195 33.9532C20.1406 33.2998 22.2282 32.2599 24.4092 31.4732C28.5709 29.9756 33.1517 29.4482 37.5538 29.9176Z" fill="#39477F"/>
<path fill-rule="evenodd" clip-rule="evenodd" d="M94.5611 6.27222H99.5681V29.7718H94.5611V6.27222ZM49.5415 29.7591H54.4813V20.0668C54.4813 18.4662 54.8763 16.481 56.5075 16.481C57.2558 16.481 57.904 16.6793 58.505 17.186C58.5242 17.2053 60.3049 13.055 60.2857 13.0743C59.1785 12.0597 58.0235 11.8186 57.1812 11.8186C55.3524 11.8186 53.8257 12.9297 53.214 14.5912L52.2437 12.3114H49.5415V29.7591ZM102.373 29.7591H107.311V20.0668C107.311 18.4662 108.257 16.5668 109.889 16.5668C111.524 16.5668 111.663 18.8347 111.663 19.9168C111.671 19.9479 111.668 29.759 111.668 29.759H116.61V20.1396C116.61 17.9499 117.828 16.5872 119.152 16.5872C120.764 16.5872 121.01 18.3784 121.01 20.0668L121.02 29.759H125.942V18.5209C125.942 16.2753 125.172 11.7779 120.309 11.7779C117.999 11.7779 116.658 12.5439 115.573 14.4819C114.558 12.6586 112.705 11.7705 110.875 11.7705C109.046 11.7705 107.066 12.7367 106.046 14.7316L105.075 12.3125H102.373L102.373 29.7591ZM65.3843 18.8476H71.1973C71.0585 16.5047 69.6739 15.6754 68.3255 15.6754C66.9783 15.6754 65.5487 16.7703 65.3843 18.8476ZM69.9451 25.8894C72.1037 25.8894 73.7691 24.8748 73.7691 24.8748L75.1655 28.7627C74.4631 29.1462 72.1411 30.1211 69.3793 30.1211C63.0251 30.1211 60.4725 25.9 60.4725 20.8509C60.4725 16.0815 63.3315 11.7447 68.4238 11.7447C73.4264 11.7447 76.8353 15.9112 75.9427 22.5961H65.3171C65.5487 24.9766 67.6091 25.8894 69.9451 25.8894ZM81.8485 24.517C81.8485 25.7007 83.7574 26.8322 85.3533 25.9761C86.9098 25.1413 86.7806 23.8346 86.7806 21.9876C83.8331 21.9877 81.8485 23.0558 81.8485 24.517ZM88.9638 29.7676L87.9177 27.7299C87.418 28.467 85.7896 30.2722 82.7911 30.2722C79.473 30.2722 76.96 27.912 76.96 25.1523C76.96 22.3498 78.9041 18.6484 86.7924 18.6484C86.7924 16.7886 85.1856 16.0964 83.4882 16.0964C82.189 16.0964 80.3409 16.6461 78.7643 18.1394L77.2633 13.9002C78.2998 13.2542 80.6913 11.6001 84.2526 11.6001C89.5597 11.6001 91.7278 14.8151 91.7278 19.996V29.7686H88.9639V29.7676H88.9638Z" fill="white"/>
</svg>
